# xmcd CD database file
#
# Track frame offsets:
#	150
#	13352
#	28982
#	42012
#	59427
#	75425
#	88022
#	103285
#	116562
#	133602
#	144970
#	157777
#	171215
#	182952
#	191350
#	200315
#
# Disc length: 2822 seconds
#
# Revision: 0
# Processed by: cddbd v1.5.1PL0 Copyright (c) Steve Scherf et al.
# Submitted via: CDex 1.51
#
DISCID=d50b0410
DTITLE=Various Artist - Guitares et Violons Tziganes
DYEAR=1997
DGENRE=Jazz
TTITLE0=Les yeux noirs
TTITLE1=Nuages
TTITLE2=Daphné
TTITLE3=Deux guitares
TTITLE4=Yoska Yoska
TTITLE5=Hora des bergers
TTITLE6=Chamil
TTITLE7=Danse hongroise
TTITLE8=Les yeux d'or
TTITLE9=Swing gipsy
TTITLE10=Le manoir de mes rêves
TTITLE11=Socher, Ralentis tes chevaux
TTITLE12=Boublitchky
TTITLE13=L'alouette roumaine
TTITLE14=Brûle, brûle
TTITLE15=Danse roumaine
EXTD=YEAR: 1997
EXTT0=
EXTT1=
EXTT2=
EXTT3=
EXTT4=
EXTT5=
EXTT6=
EXTT7=
EXTT8=
EXTT9=
EXTT10=
EXTT11=
EXTT12=
EXTT13=
EXTT14=
EXTT15=
PLAYORDER=
